<?xml version="1.0" standalone="no"?>
<!DOCTYPE svg PUBLIC "-//W3C//DTD SVG 20010904//EN"
 "http://www.w3.org/TR/2001/REC-SVG-20010904/DTD/svg10.dtd">
<svg version="1.0" xmlns="http://www.w3.org/2000/svg"
 width="500.000000pt" height="500.000000pt" viewBox="0 0 500.000000 500.000000"
 preserveAspectRatio="xMidYMid meet">

<g transform="translate(0.000000,500.000000) scale(0.100000,-0.100000)"
fill="#000000" stroke="none">
<path d="M3530 4244 c-332 -47 -506 -76 -570 -95 -36 -10 -98 -24 -139 -30
l-73 -11 -85 -132 c-75 -115 -170 -258 -224 -336 -9 -14 -56 -84 -103 -157
-48 -73 -91 -135 -98 -139 -16 -10 -9 2 76 129 76 112 79 119 65 142 -17 29
-134 191 -204 283 l-50 66 -204 33 c-113 18 -207 31 -209 28 -3 -2 0 -10 5
-17 74 -94 263 -329 280 -348 13 -14 35 -44 50 -67 14 -23 30 -40 35 -37 5 3
8 2 7 -3 -4 -14 13 -43 21 -38 8 5 46 -45 43 -57 -2 -3 15 -24 37 -47 22 -22
36 -42 32 -45 -5 -3 -37 31 -73 75 -35 44 -69 86 -75 93 -7 7 -60 73 -120 147
-59 74 -121 150 -138 169 -17 20 -47 55 -66 79 -50 61 -61 72 -69 67 -3 -2
-45 -9 -91 -15 -109 -15 -263 -37 -418 -62 -68 -11 -149 -22 -180 -25 -31 -3
-60 -8 -64 -10 -5 -3 2 -18 14 -34 13 -15 55 -74 93 -130 39 -56 104 -149 145
-207 212 -298 240 -340 232 -348 -4 -5 -1 -4 7 0 11 6 13 4 8 -8 -4 -10 1 -21
12 -29 10 -7 19 -17 20 -23 1 -5 43 -68 94 -140 50 -71 112 -160 136 -197 l45
-68 57 0 c88 0 89 -3 89 -186 l0 -154 -54 -77 c-30 -43 -64 -91 -76 -108 -11
-16 -49 -68 -83 -115 -34 -47 -69 -95 -77 -107 -8 -12 -58 -81 -110 -155 -102
-144 -111 -157 -315 -452 -75 -109 -166 -237 -202 -283 -36 -46 -63 -87 -60
-89 3 -3 43 -8 89 -10 79 -5 456 -50 488 -59 8 -2 96 -17 195 -32 286 -44 494
-34 625 32 55 28 272 264 403 438 22 28 43 52 47 52 5 0 36 -54 70 -120 34
-66 70 -132 81 -146 18 -26 64 -145 71 -184 2 -16 16 -22 68 -31 77 -14 34
-17 -77 -6 l-72 8 20 -31 c11 -16 32 -52 47 -79 15 -27 41 -65 57 -83 29 -33
34 -35 160 -52 253 -36 371 -51 505 -62 l135 -11 75 30 c41 16 115 42 163 57
59 18 87 31 85 40 -2 11 -240 310 -349 439 -45 52 -176 213 -333 407 -154 189
-287 350 -296 359 -9 8 -293 360 -324 402 l-28 37 49 58 c27 32 71 90 98 128
63 91 265 357 425 560 69 88 191 246 270 350 79 105 178 235 220 290 236 310
270 355 270 363 0 4 -62 28 -137 54 -108 35 -142 43 -158 35 -17 -8 -18 -8 -9
4 6 8 14 21 17 31 10 28 -42 -5 -86 -54 l-38 -43 25 40 c14 22 26 43 26 47 0
10 -56 38 -72 37 -7 -1 -87 -12 -178 -25z m198 -42 c-4 -9 -58 -88 -145 -210
-73 -103 -70 -99 -226 -320 -67 -95 -142 -202 -167 -238 -25 -35 -83 -118
-130 -184 -121 -170 -226 -319 -363 -517 -65 -95 -123 -176 -129 -179 -6 -4
-15 2 -21 12 -6 10 -21 29 -34 42 l-24 24 41 59 c22 32 40 61 40 64 0 4 24 38
53 78 28 40 65 92 82 117 16 25 38 55 48 67 11 12 34 44 51 72 59 94 120 181
127 181 4 0 18 17 30 38 13 20 29 41 36 45 7 4 13 13 13 19 0 6 12 25 28 43
15 17 45 58 67 89 22 32 56 79 75 106 19 27 57 80 83 117 119 167 206 292 216
311 11 20 9 22 -21 22 -34 0 -234 -27 -443 -60 -66 -10 -139 -22 -163 -25 -27
-5 -48 -15 -57 -28 -33 -47 -345 -517 -432 -651 -51 -77 -93 -147 -93 -153 0
-7 -9 -13 -20 -13 -11 0 -20 4 -20 9 0 5 -30 46 -67 91 -38 45 -111 135 -163
200 -165 206 -205 250 -222 250 -27 0 -30 -18 -4 -27 13 -4 56 -48 97 -98 40
-49 63 -81 51 -71 -12 10 -48 50 -79 88 -45 53 -63 68 -84 68 -21 0 -26 -4
-24 -17 2 -10 4 -21 4 -25 1 -5 12 -8 25 -8 18 0 58 -42 182 -191 88 -105 163
-198 167 -207 4 -9 -5 -1 -20 18 -15 19 -56 68 -91 110 -35 41 -94 112 -130
156 -79 96 -88 103 -128 97 -24 -4 -35 -13 -48 -40 -21 -43 -15 -53 33 -53 29
0 43 -6 54 -22 9 -13 31 -40 51 -62 19 -21 56 -66 82 -100 l46 -61 -43 48
c-41 46 -46 48 -80 42 -24 -4 -39 -3 -44 5 -4 7 -1 11 6 9 8 -1 27 -1 42 0
l29 1 -57 65 c-52 59 -61 65 -96 65 -27 0 -41 -5 -48 -19 -6 -10 -7 -21 -4
-25 3 -3 1 -6 -7 -6 -10 0 -10 -4 1 -17 12 -15 12 -16 -3 -11 -11 5 -15 2 -13
-10 2 -9 4 -25 4 -35 1 -10 6 -15 12 -11 6 3 9 15 6 25 -3 12 0 19 9 19 8 0
14 5 14 10 0 11 40 14 41 3 4 -45 2 -71 -6 -70 -5 1 -10 -10 -10 -25 1 -34
-20 -37 -46 -6 -19 21 -20 20 -23 -22 -1 -8 -6 -13 -11 -10 -6 3 -9 14 -8 25
3 18 2 18 -8 3 -5 -10 -19 -18 -29 -18 -22 0 -44 35 -34 52 4 7 3 8 -4 4 -7
-4 -12 -2 -12 4 0 6 -4 9 -10 5 -11 -7 -43 23 -53 48 -3 9 -11 17 -17 17 -5 0
-10 6 -10 14 0 8 -3 16 -7 18 -11 4 -46 56 -68 98 -10 19 -24 39 -31 43 -8 4
-14 12 -14 17 0 5 -16 34 -35 64 -19 30 -35 62 -35 70 0 23 55 34 258 53 100
9 182 19 182 22 0 4 -9 17 -19 30 -18 23 -20 23 -82 12 -71 -12 -267 -37 -373
-47 -38 -3 -75 -8 -82 -11 -16 -6 12 -55 70 -121 41 -47 69 -83 181 -237 32
-44 70 -95 84 -114 38 -49 77 -106 135 -191 27 -41 81 -117 120 -169 44 -59
66 -96 58 -99 -7 -2 -22 -21 -32 -43 -11 -21 -24 -39 -29 -39 -4 0 -41 48 -82
106 -105 152 -145 208 -222 315 -38 52 -136 189 -218 304 -82 116 -174 244
-204 285 -42 58 -51 76 -40 82 7 5 125 24 262 43 136 19 297 42 357 51 l110
17 15 -24 c9 -13 28 -37 42 -54 27 -31 316 -399 422 -537 33 -43 63 -75 68
-72 9 5 62 84 313 469 87 132 172 261 189 287 29 44 34 47 86 53 69 7 396 50
551 71 331 45 353 47 348 36z m-5 -75 c-26 -41 -66 -97 -70 -97 -6 0 4 16 40
68 28 38 49 60 30 29z m-123 -181 c0 -2 -8 -10 -17 -17 -16 -13 -17 -12 -4 4
13 16 21 21 21 13z m-370 -28 c0 -24 -141 -241 -325 -503 -58 -82 -116 -166
-129 -185 -14 -19 -65 -93 -115 -165 -157 -226 -330 -484 -346 -515 -14 -27
-14 -31 0 -36 8 -3 12 -11 8 -18 -3 -6 -2 -8 2 -3 13 11 45 -23 45 -49 0 -13
8 -28 18 -33 9 -6 13 -11 9 -11 -13 0 76 -124 362 -502 484 -643 773 -1030
863 -1158 l50 -71 -39 6 c-21 3 -96 12 -168 20 -250 29 -380 45 -406 50 -18 4
-39 24 -63 61 l-36 54 32 0 c18 0 127 -12 241 -26 115 -14 211 -23 215 -20 8
9 -29 46 -45 46 -8 0 -11 5 -8 10 4 6 -5 26 -18 44 -21 27 -31 32 -59 30 -32
-3 -32 -3 -4 4 l29 7 -205 275 c-114 151 -270 361 -347 465 -78 105 -176 237
-219 293 -42 57 -84 114 -92 126 -8 12 -42 57 -75 100 -55 73 -60 77 -73 60
-7 -11 -39 -55 -71 -99 -31 -44 -102 -145 -157 -224 -54 -78 -115 -166 -135
-195 -20 -28 -76 -110 -125 -182 -49 -72 -132 -193 -184 -270 -52 -76 -103
-153 -115 -171 -25 -40 -73 -63 -86 -42 -5 8 -6 22 -3 31 3 10 -2 18 -13 21
-15 4 -15 5 3 6 19 1 48 32 87 94 17 27 17 31 2 47 -16 17 -16 18 4 13 15 -4
30 4 51 27 17 18 29 38 27 44 -5 13 20 53 31 48 3 -2 8 2 11 9 2 7 -1 9 -9 4
-9 -5 -11 -4 -6 4 4 6 11 9 16 6 4 -3 27 24 49 60 32 51 43 79 50 132 l8 68 2
-55 c2 -51 3 -53 16 -36 8 11 15 33 15 49 0 15 4 26 9 22 5 -3 12 4 16 15 4
11 11 18 16 15 5 -3 7 0 4 7 -2 7 0 29 4 48 l9 35 1 -35 c2 -33 2 -34 16 -16
9 12 16 46 17 85 l2 66 3 -58 4 -59 30 41 c16 23 29 50 29 61 0 11 6 20 14 20
8 0 40 37 70 83 53 77 56 87 58 147 2 64 2 64 5 12 4 -53 22 -64 24 -14 0 15
3 21 6 14 5 -12 153 176 153 195 0 5 -12 23 -27 41 l-28 33 -55 -82 c-70 -105
-120 -165 -120 -146 0 9 -7 22 -15 30 -12 12 -15 54 -15 223 -1 115 -4 243 -8
284 l-7 75 -6 -70 -5 -70 -2 77 c-2 79 -18 114 -25 56 -3 -25 -4 -21 -5 16 -1
27 -5 46 -9 43 -4 -4 -13 7 -20 25 -10 24 -11 33 -2 39 7 4 9 15 5 25 -6 16
-5 17 11 3 10 -9 33 -15 50 -14 30 2 38 -4 90 -76 45 -61 59 -74 65 -61 5 12
7 8 8 -13 0 -19 13 -44 34 -67 l34 -38 7 55 c11 90 -4 214 -31 262 -13 23 -24
49 -24 57 0 9 -9 21 -20 28 -12 8 -20 24 -20 38 0 14 -6 32 -12 40 -7 8 -2 6
12 -5 14 -11 27 -21 29 -22 2 -1 -1 -9 -8 -16 -8 -11 -6 -18 9 -32 11 -10 20
-24 20 -32 0 -7 12 -32 26 -54 24 -38 26 -52 31 -190 3 -82 10 -149 15 -149 5
0 6 5 3 10 -3 6 0 10 8 10 8 0 25 17 38 38 21 35 22 47 22 217 l0 180 11 -168
c6 -93 14 -165 19 -161 4 4 8 82 9 173 l2 166 6 -155 6 -155 3 165 c3 135 5
153 11 100 4 -36 9 -101 11 -145 2 -59 5 -37 9 80 l6 160 2 -140 c3 -139 3
-140 21 -115 11 14 19 29 19 33 1 5 9 16 20 25 35 32 42 59 43 179 0 143 10
209 34 231 17 16 17 16 1 -8 -13 -20 -16 -49 -14 -170 l2 -145 3 133 4 134 59
79 c33 44 60 84 60 89 0 6 7 10 16 10 11 0 14 8 12 25 -2 19 17 50 76 125 83
105 94 112 191 124 22 2 42 5 45 6 3 1 14 3 24 4 11 0 21 6 23 13 3 8 -13 10
-54 7 -148 -11 -160 -14 -173 -40 -7 -13 -18 -24 -23 -24 -5 0 2 15 15 32 25
32 29 33 139 46 122 14 112 8 180 90 10 12 30 22 44 22 19 0 25 -5 25 -22z
m330 -27 c-5 -11 -15 -23 -21 -27 -6 -3 -3 5 6 20 20 30 30 35 15 7z m-39 -59
c-5 -10 -18 -25 -27 -33 -11 -9 -9 -2 6 19 26 35 36 42 21 14z m-68 -94 c-15
-24 -71 -104 -123 -178 -52 -74 -118 -167 -145 -207 -28 -40 -59 -85 -70 -100
-11 -16 -47 -66 -80 -113 -33 -46 -86 -120 -117 -165 -32 -44 -82 -116 -113
-160 -30 -44 -67 -93 -81 -110 -14 -16 5 15 42 70 101 150 120 176 522 743 18
26 60 88 94 137 59 88 87 125 95 125 2 0 -9 -19 -24 -42z m-658 -48 c-15 -22
-35 -45 -44 -52 -8 -7 -2 5 15 27 17 22 34 49 38 59 3 10 9 16 13 13 3 -4 -6
-25 -22 -47z m-155 -224 c0 -2 -8 -10 -17 -17 -16 -13 -17 -12 -4 4 13 16 21
21 21 13z m-675 -26 c10 -11 16 -20 13 -20 -3 0 -13 9 -23 20 -10 11 -16 20
-13 20 3 0 13 -9 23 -20z m-190 -68 c-3 -3 -11 0 -18 7 -9 10 -8 11 6 5 10 -3
15 -9 12 -12z m285 -30 c0 -13 -12 -22 -22 -16 -10 6 -1 24 13 24 5 0 9 -4 9
-8z m-280 -33 c0 -11 -4 -18 -10 -14 -5 3 -7 12 -3 20 7 21 13 19 13 -6z m-14
-123 c38 -48 39 -50 48 -66 4 -8 -3 -3 -16 12 -59 69 -68 86 -66 125 l1 38 4
-39 c3 -22 15 -54 29 -70z m-61 64 c3 -5 1 -10 -4 -10 -6 0 -11 5 -11 10 0 6
2 10 4 10 3 0 8 -4 11 -10z m85 -45 c14 -19 14 -19 -2 -6 -10 7 -18 18 -18 24
0 6 1 8 3 6 1 -2 9 -13 17 -24z m-61 -45 l43 -55 -46 50 c-25 28 -46 54 -46
59 0 5 1 7 3 5 2 -2 22 -29 46 -59z m323 -33 c80 -107 87 -117 67 -97 -24 24
-152 193 -140 185 6 -3 39 -43 73 -88z m-217 23 c10 -11 16 -20 13 -20 -3 0
-13 9 -23 20 -10 11 -16 20 -13 20 3 0 13 -9 23 -20z m46 -57 c13 -16 12 -17
-3 -4 -17 13 -22 21 -14 21 2 0 10 -8 17 -17z m40 -53 c40 0 47 -3 63 -32 l17
-33 -21 28 c-18 22 -30 27 -65 27 -38 0 -46 4 -70 38 l-26 37 29 -32 c24 -28
35 -33 73 -33z m-16 -38 c35 4 44 2 55 -16 l13 -21 -23 20 -23 20 7 -20 c6
-16 5 -18 -5 -7 -7 6 -27 12 -44 12 -31 0 -43 10 -84 70 -17 25 -11 21 19 -14
41 -46 46 -48 85 -44z m100 48 c10 -11 16 -20 13 -20 -3 0 -13 9 -23 20 -10
11 -16 20 -13 20 3 0 13 -9 23 -20z m-86 -104 c0 -7 -2 -6 -6 2 -2 6 -11 12
-19 12 -9 0 -12 5 -9 10 8 13 35 -6 34 -24z m239 3 c-3 -8 -7 -3 -11 10 -4 17
-3 21 5 13 5 -5 8 -16 6 -23z m406 -451 c-18 -31 -106 -148 -110 -148 -8 0 5
19 60 93 47 61 68 85 50 55z m-557 -35 c-3 -10 -5 -4 -5 12 0 17 2 24 5 18 2
-7 2 -21 0 -30z m0 -90 c-2 -16 -4 -5 -4 22 0 28 2 40 4 28 2 -13 2 -35 0 -50z
m-152 -189 c6 -32 -1 -44 -83 -157 -49 -67 -131 -183 -182 -257 -52 -74 -109
-157 -129 -185 -19 -27 -64 -93 -99 -145 -36 -52 -99 -143 -139 -202 -41 -60
-71 -108 -66 -108 4 0 1 -4 -7 -10 -8 -5 -12 -11 -10 -14 3 -2 64 -10 135 -16
72 -6 162 -18 200 -25 39 -8 129 -21 200 -30 72 -8 148 -17 171 -20 39 -6 43
-4 80 41 21 26 39 54 40 61 3 15 77 103 83 97 3 -2 -13 -23 -35 -45 -31 -33
-34 -38 -11 -24 15 9 27 20 27 24 0 3 14 20 30 38 31 33 39 50 18 37 -7 -4 -8
-3 -4 5 4 6 11 9 15 7 12 -8 64 51 57 62 -4 6 -1 14 5 18 8 4 9 3 5 -4 -4 -7
-2 -12 3 -12 6 0 12 5 12 10 1 6 2 14 3 19 0 5 5 13 10 18 6 5 6 2 1 -7 -8
-13 -7 -13 8 -1 20 16 23 36 5 25 -9 -5 -9 -2 1 9 16 20 26 23 15 5 -5 -9 -2
-8 10 1 9 8 15 20 12 27 -5 13 27 48 36 38 3 -3 14 6 25 21 10 14 26 35 36 47
20 25 22 54 5 61 -8 3 -6 6 5 6 9 1 17 6 17 12 0 5 4 8 9 4 5 -3 13 0 17 6 4
8 3 9 -4 5 -17 -11 -14 5 5 26 9 11 11 18 5 18 -22 0 -12 19 10 22 12 2 28 14
35 28 7 14 13 19 13 10 1 -10 8 -7 23 11 12 15 37 34 55 44 32 16 34 15 47 -2
35 -46 30 -70 -31 -141 -31 -37 -110 -130 -175 -207 -65 -77 -147 -174 -183
-215 -36 -41 -112 -129 -168 -195 -91 -107 -105 -120 -133 -119 -27 2 -310 38
-738 96 -114 16 -166 27 -163 34 5 12 15 28 193 279 58 83 150 215 205 295 55
80 122 177 149 215 28 39 61 86 74 105 13 19 42 60 64 90 22 30 66 94 98 142
63 93 74 96 88 22z m222 -76 c-3 -7 -5 -2 -5 12 0 14 2 19 5 13 2 -7 2 -19 0
-25z m-46 -11 c-10 -9 -11 -8 -5 6 3 10 9 15 12 12 3 -3 0 -11 -7 -18z m-11
-21 c0 -2 -8 -10 -17 -17 -16 -13 -17 -12 -4 4 13 16 21 21 21 13z m40 -10 c0
-2 -8 -10 -17 -17 -16 -13 -17 -12 -4 4 13 16 21 21 21 13z m-50 -66 c-11 -16
-26 -33 -32 -36 -7 -4 1 9 16 29 34 44 46 50 16 7z m458 3 c-10 -2 -26 -2 -35
0 -10 3 -2 5 17 5 19 0 27 -2 18 -5z m-538 -57 c0 -2 -8 -10 -17 -17 -16 -13
-17 -12 -4 4 13 16 21 21 21 13z m383 -3 c-13 -2 -35 -2 -50 0 -16 2 -5 4 22
4 28 0 40 -2 28 -4z m175 -10 c-10 -2 -26 -2 -35 0 -10 3 -2 5 17 5 19 0 27
-2 18 -5z m-235 -50 c-7 -2 -21 -2 -30 0 -10 3 -4 5 12 5 17 0 24 -2 18 -5z
m144 -10 c-20 -2 -52 -2 -70 0 -17 2 0 4 38 4 39 0 53 -2 32 -4z m-44 -30
c-18 -2 -48 -2 -65 0 -18 2 -4 4 32 4 36 0 50 -2 33 -4z m135 -10 c-16 -2 -40
-2 -55 0 -16 2 -3 4 27 4 30 0 43 -2 28 -4z m-198 -144 c0 -10 -5 -21 -11 -25
-18 -11 -31 11 -23 40 5 21 9 24 20 15 8 -6 14 -20 14 -30z m-32 -46 c-16 -2
-40 -2 -55 0 -16 2 -3 4 27 4 30 0 43 -2 28 -4z m-78 -58 c0 -8 -4 -15 -10
-15 -5 0 -10 7 -10 15 0 8 5 15 10 15 6 0 10 -7 10 -15z m-105 -12 c7 -17 8
-16 15 2 7 15 9 16 9 4 1 -9 -7 -23 -16 -30 -11 -10 -14 -10 -9 -1 4 7 1 12
-8 12 -9 0 -16 7 -16 15 0 21 16 19 25 -2z m142 -25 c-3 -8 -6 -5 -6 6 -1 11
2 17 5 13 3 -3 4 -12 1 -19z m-613 -52 c2 -20 0 -38 -3 -40 -4 -3 -7 16 -8 41
-3 53 7 52 11 -1z m366 35 c0 -6 -4 -13 -10 -16 -5 -3 -10 1 -10 9 0 9 5 16
10 16 6 0 10 -4 10 -9z m280 5 c0 -2 -8 -10 -17 -17 -16 -13 -17 -12 -4 4 13
16 21 21 21 13z m8 -26 c-22 -30 -35 -41 -22 -17 9 16 36 47 41 47 2 0 -6 -13
-19 -30z m-287 -42 c9 -33 4 -36 -41 -27 -22 4 -27 7 -12 8 12 0 22 8 22 16 0
8 6 15 13 16 6 0 3 5 -8 10 -19 8 -19 9 -1 6 12 -1 23 -13 27 -29z m197 -7
c11 -7 10 -9 -3 -14 -9 -4 -13 -3 -10 3 10 16 -7 12 -28 -7 -19 -18 -19 -17
-6 5 15 24 26 27 47 13z m-158 -20 c-5 -11 -15 -23 -21 -27 -6 -3 -3 5 6 20
20 30 30 35 15 7z m210 16 c0 -2 -10 -12 -22 -23 l-23 -19 19 23 c18 21 26 27
26 19z m-40 -51 c0 -2 -8 -10 -17 -17 -16 -13 -17 -12 -4 4 13 16 21 21 21 13z
m-210 -20 c0 -2 -8 -10 -17 -17 -16 -13 -17 -12 -4 4 13 16 21 21 21 13z m90
-19 c0 -2 -10 -12 -22 -23 l-23 -19 19 23 c18 21 26 27 26 19z m-177 -24 c-7
-2 -19 -2 -25 0 -7 3 -2 5 12 5 14 0 19 -2 13 -5z m237 -6 c0 -2 -12 -14 -27
-28 l-28 -24 24 28 c23 25 31 32 31 24z m-86 -100 c-22 -24 -41 -42 -43 -40
-5 3 70 83 77 83 3 0 -13 -19 -34 -43z m-109 -48 c24 -9 -112 0 -170 12 -25 5
-5 6 55 2 52 -3 104 -9 115 -14z m-578 5 c-3 -3 -12 -4 -19 -1 -8 3 -5 6 6 6
11 1 17 -2 13 -5z m76 -11 c-7 -2 -21 -2 -30 0 -10 3 -4 5 12 5 17 0 24 -2 18
-5z m446 -29 c8 -7 -74 -3 -114 6 -30 6 -21 7 35 3 41 -3 77 -7 79 -9z m91 1
c-7 -8 -26 -14 -44 -14 l-31 2 30 4 c17 3 34 9 40 14 15 15 19 10 5 -6z m-587
-2 c-7 -2 -21 -2 -30 0 -10 3 -4 5 12 5 17 0 24 -2 18 -5z m439 -29 c62 -8
121 -16 130 -17 9 -1 15 -4 13 -7 -4 -7 -86 3 -215 25 -108 18 -61 18 72 -1z
m1401 -41 c-7 -2 -21 -2 -30 0 -10 3 -4 5 12 5 17 0 24 -2 18 -5z m-140 -110
c-7 -2 -19 -2 -25 0 -7 3 -2 5 12 5 14 0 19 -2 13 -5z m162 -13 c48 -7 49 -7
10 -8 -22 0 -62 3 -90 8 -48 7 -49 7 -10 8 22 0 63 -3 90 -8z m-42 -67 c-13
-2 -35 -2 -50 0 -16 2 -5 4 22 4 28 0 40 -2 28 -4z m95 -10 c-10 -2 -28 -2
-40 0 -13 2 -5 4 17 4 22 1 32 -1 23 -4z m65 -10 c-7 -2 -21 -2 -30 0 -10 3
-4 5 12 5 17 0 24 -2 18 -5z"/>
<path d="M1697 3383 c-10 -9 -9 -23 2 -23 5 0 11 7 15 15 5 15 -5 20 -17 8z"/>
<path d="M3029 3766 c-2 -2 -33 -7 -68 -10 -75 -8 -101 -20 -101 -46 0 -10 -5
-22 -12 -26 -7 -5 -8 -3 -3 6 5 9 4 11 -4 6 -6 -4 -9 -11 -6 -15 2 -5 -9 -27
-25 -49 -16 -23 -32 -52 -35 -65 -4 -13 -13 -24 -21 -24 -9 0 -13 6 -9 14 3 8
5 17 5 19 0 3 6 2 13 -2 6 -4 9 -3 4 1 -4 5 0 17 10 27 9 10 11 18 5 18 -16 0
-54 -57 -51 -77 3 -35 -1 -54 -11 -48 -6 4 -10 -5 -10 -19 0 -14 5 -26 11 -26
6 0 -4 -19 -21 -42 -74 -100 -78 -108 -70 -173 l7 -60 2 61 c1 58 4 66 60 145
48 66 59 88 54 110 -3 15 0 30 7 34 8 5 10 -4 7 -33 -3 -27 -20 -64 -55 -116
-43 -62 -52 -83 -52 -118 l0 -43 25 30 c14 17 50 67 81 111 30 45 61 87 69 94
8 7 15 16 15 21 0 5 18 32 39 61 22 28 38 55 35 60 -3 4 -1 8 5 8 6 0 15 10
22 21 8 15 8 19 0 15 -6 -4 -11 -5 -11 -1 0 3 10 10 23 15 18 8 14 9 -18 5
-62 -6 -72 -13 -116 -78 -34 -52 -40 -68 -36 -102 2 -23 0 -50 -4 -61 -5 -11
-8 10 -8 55 l-1 74 55 68 c43 54 62 69 83 70 47 1 76 9 92 25 13 14 9 14 -40
9 -30 -3 -66 -8 -80 -11 -23 -4 -24 -3 -7 10 11 8 48 18 83 21 35 4 69 14 75
21 10 12 0 21 -12 10z"/>
<path d="M2791 3641 c-8 -5 -9 -11 -3 -15 5 -3 12 1 16 9 6 17 6 18 -13 6z"/>
<path d="M2642 3408 l-52 -71 0 -116 c0 -79 3 -111 10 -101 5 8 10 59 10 113
0 95 1 100 36 154 19 30 38 52 41 49 4 -3 -3 -16 -13 -29 -25 -27 -56 -77 -50
-77 7 0 86 107 86 115 0 3 -5 3 -11 -1 -8 -4 -9 0 -4 15 3 11 5 21 2 21 -2 0
-27 -32 -55 -72z"/>
<path d="M2034 2741 c4 -7 8 -114 7 -239 0 -152 3 -221 10 -210 5 10 8 107 7
234 -2 175 -6 218 -17 222 -9 3 -11 0 -7 -7z"/>
<path d="M2070 2525 c0 -180 1 -188 17 -172 15 15 18 40 20 160 3 128 1 145
-17 172 l-20 30 0 -190z"/>
<path d="M2121 2515 c0 -93 3 -114 11 -95 5 14 16 36 23 50 14 28 11 83 -5 88
-5 2 -8 8 -5 13 3 5 -1 21 -9 36 -14 26 -15 20 -15 -92z"/>
<path d="M2250 1445 c-11 -13 -10 -14 4 -9 9 3 16 10 16 15 0 13 -6 11 -20 -6z"/>
<path d="M1990 3646 c0 -2 8 -10 18 -17 15 -13 16 -12 3 4 -13 16 -21 21 -21
13z"/>
<path d="M2110 3503 c0 -5 10 -18 23 -29 l22 -19 -20 25 c-11 14 -21 27 -22
29 -2 2 -3 0 -3 -6z"/>
</g>
</svg>
